# xmcd
#
# Track frame offsets:
#	150
#	37921
#	110881
#	167391
#	224842
#
# Disc length: 3933 seconds
#
# Revision: 0
# Processed by: cddbd v1.5.2PL0 Copyright (c) Steve Scherf et al.
# Submitted via: audiograbber 1.83.01
#
DISCID=430f5b05
DTITLE=Grateful Dead - 94-09-29 Boston Garden, Boston MA
DYEAR=1900
DGENRE=
TTITLE0=Playing In The Band
TTITLE1=Eyes Of The World
TTITLE2=Estimated Prophet
TTITLE3=He's Gone
TTITLE4=Drums
EXTD=
EXTT0=
EXTT1=
EXTT2=
EXTT3=
EXTT4=
PLAYORDER=
